<svg width="16" height="16" viewBox="0 0 16 16" version="1.1" xmlns="http://www.w3.org/2000/svg" xmlns:xlink="http://www.w3.org/1999/xlink">
    <defs>
        <rect id="r" y="4.25" width=".5" height="9"/>
    </defs>
    <g fill="#D7DAE0" >
        <path d="M14,2.68001015 L10.8420885,2.68001015 L10.8420885,2.12000676 C10.8420885,1.50151702 10.2765,1 9.57892395,1 L6.42104427,1 C5.72346817,1 5.15787968,1.50151702 5.15787968,2.12000676 L5.15787968,2.68001015 L2,2.68001015 L2,3.24001353 L3.28290551,3.24001353 L3.28290551,13.8799932 C3.28290551,14.4985112 3.848494,15 4.54607009,15 L11.4934117,15 C12.1909878,15 12.7565763,14.4985112 12.7565763,13.8799932 L12.7565763,3.24001353 L14,3.24001353 L14,2.68001015 L14,2.68001015 Z M5.78946197,2.12000676 C5.78946197,1.81102966 6.07320989,1.56000338 6.42104427,1.56000338 L9.57892395,1.56000338 C9.9273941,1.56000338 10.2105062,1.81102966 10.2105062,2.12000676 L10.2105062,2.68001015 L5.78946197,2.68001015 L5.78946197,2.12000676 Z M12.126202,13.8509896 L12.1249623,13.8652237 L12.1249623,13.8799932 C12.1249623,14.1884348 11.8418501,14.4399966 11.49338,14.4399966 L4.54603831,14.4399966 C4.19820393,14.4399966 3.91445601,14.1884348 3.91445601,13.8799932 L3.91445601,13.8652237 L3.91385202,13.8504823 L3.91385202,3.24001353 L12.126202,3.24001353 L12.126202,13.8509896 Z"/>
        <use xlink:href="#r" x="5.5"/>
        <use xlink:href="#r" x="7.75"/>
        <use xlink:href="#r" x="10"/>
    </g>
</svg>